<?xml version="1.0" encoding="UTF-8"?><svg id="uuid-c90a67ac-e924-4bcd-beaa-74a26213413b" xmlns="http://www.w3.org/2000/svg" width="1025" height="593.3" viewBox="0 0 1025 593.3"><path d="M1,458.6c-7.2-14.3,62-192.2,183.1-296.8,68.4-59.1,139.1-82.5,141.9-70.1,1.9,8.5-30.7,21.4-58.6,78.7-38.5,79.2-23.4,151.5-55.4,186-21.8,23.5-36.5-2.1-77.2.7C54.2,362.5,6.8,470,1,458.6Z" style="fill:#fff; stroke:#000; stroke-miterlimit:10;"/><path d="M212.5,399.5c-1-20.3,130.1-225.7,280.1-322.5,84.7-54.7,157.8-63.3,155.6-46.7-1.5,11.3-36.1,18-83.4,82.5-65.4,89.1-79.5,185.6-121.7,219.8-28.8,23.3-32.3-13.6-70.3-22.2-75.2-17-159.5,105.4-160.3,89.1Z" style="fill:#fff; stroke:#000; stroke-miterlimit:10;"/><path d="M463.3,361.8c-13-18.4,186.5-282.3,365.3-249.9,32.4,5.9,74.7,23.4,117.2.9,59.7-31.5,69.2-114.9,76.6-112.2,7.3,2.6-4.1,81.4-43.9,119.1-2.4,2.3-7,6.4-12.3,10.8-28.8,23.9-54,34.3-59.1,38.5-87.1,72.5-116,167.1-169.2,190-8.6,3.7-15.1,4.4-20.6,2.9-28.3-7.3-43.5-33-57.4-45.5-50.2-45.3-186.9,59.1-196.5,45.5Z" style="fill:#f15a24; stroke:#000; stroke-miterlimit:10;"/><text transform="translate(75.7 493.2) scale(.7 1)"><tspan><tspan x="0" y="0" style="fill:#f15a24; font-family:Elephant-Regular, Elephant; font-size:140px;">E</tspan><tspan x="121.5" y="0" style="fill:#000; font-family:Modern-Regular, &apos;Modern No. 20&apos;; font-size:120px;">conometri</tspan></tspan></text><path d="M819.6,152.9c6.4,0,6.4-10,0-10s-6.4,10,0,10h0Z" style="fill:blue; stroke-width:0px;"/><text transform="translate(540.5 532.1) scale(.7 1)"><tspan><tspan x="0" y="0" style="fill:#f15a24; font-family:Elephant-Regular, Elephant; font-size:200px;">C</tspan><tspan x="158.6" y="0" style="fill:#000; font-family:Modern-Regular, &apos;Modern No. 20&apos;; font-size:120px;">onsulting</tspan></tspan></text></svg>